<?xml version="1.0" encoding="UTF-8"?>
<svg width="218.18mm" height="218.18mm" version="1.1" viewBox="0 0 218.18 218.18" xmlns="http://www.w3.org/2000/svg">
 <g transform="translate(-3.4083 -10.908)">
  <g>
   <path d="m112.5 92.018 27.982 27.982-27.982 27.982-27.982-27.982z" fill="#fff"/>
   <path d="m112.5 60 37.5-22.5 7.5 37.5 37.5 7.5-22.5 37.5 22.5 37.5-37.5 7.5-7.5 37.5-37.5-22.5-37.5 22.5-7.5-37.5-37.5-7.5 22.5-37.5-22.5-37.5 37.5-7.5 7.5-37.5z" fill="none" stroke="#fff" stroke-width="33.5"/>
  </g>
  <path d="m112.5 97.5 22.5 22.5-22.5 22.5-22.5-22.5z" fill="#000"/>
  <path d="m112.5 60 37.5-22.5 7.5 37.5 37.5 7.5-22.5 37.5 22.5 37.5-37.5 7.5-7.5 37.5-37.5-22.5-37.5 22.5-7.5-37.5-37.5-7.5 22.5-37.5-22.5-37.5 37.5-7.5 7.5-37.5z" fill="none" stroke="#000" stroke-width="25.065"/>
 </g>
</svg>
